{"title":"The Girl Who Kicked the Hornets Nest (PSP + Ipod touch + Zune)","uid":5664445,"size":586065736,"categoryP":"video","categoryS":"handheld","magnet":"?xt=urn:btih:ad413a18c9806aa9d9e6d6409dceedf5842cd773&amp;dn=The+Girl+Who+Kicked+the+Hornets+Nest+%28PSP+%2B+Ipod+touch+%2B+Zune%29&amp;tr=udp%3A%2F%2Ftracker.openbittorrent.com%3A80&amp;tr=udp%3A%2F%2Fopen.demonii.com%3A1337&amp;tr=udp%3A%2F%2Ftracker.coppersurfer.tk%3A6969&amp;tr=udp%3A%2F%2Fexodus.desync.com%3A6969","seeders":0,"leechers":1,"uploader":"on.off.on","files":-1,"time":1278086418,"description":"The Girl Who Kicked the Hornets Nest - Swedish\n\n &lt;a href=&quot;\nhttp://www.imdb.com/title/tt1343097/&quot; rel=&quot;nofollow&quot; target=&quot;_NEW&quot;&gt;\nhttp://www.imdb.com/title/tt1343097/&lt;/a&gt;\n\nSource  :\n\nLuftslottet Som SprÃƒÂ¤ngdes (2009) 720p multisub\n\n\n\nInfo    :\n\nID                               : 1\nFormat                           : AVC\nFormat/Info                      : Advanced Video Codec\nFormat profile                   : &lt;a class=&quot;__cf_email__&quot; href=&quot;/cdn-cgi/l/email-protection&quot; data-cfemail=&quot;a1e3c0d2c4cdc8cfc4e1ed938f90&quot;&gt;[email&amp;#160;protected]&lt;/a&gt;&lt;script cf-hash='f9e31' type=&quot;text/javascript&quot;&gt;\n/* &lt;![CDATA[ */!function(){try{var t=&quot;currentScript&quot;in document?document.currentScript:function(){for(var t=document.getElementsByTagName(&quot;script&quot;),e=t.length;e--;)if(t[e].getAttribute(&quot;cf-hash&quot;))return t[e]}();if(t&amp;&amp;t.previousSibling){var e,r,n,i,c=t.previousSibling,a=c.getAttribute(&quot;data-cfemail&quot;);if(a){for(e=&quot;&quot;,r=parseInt(a.substr(0,2),16),n=2;a.length-n;n+=2)i=parseInt(a.substr(n,2),16)^r,e+=String.fromCharCode(i);e=document.createTextNode(e),c.parentNode.replaceChild(e,c)}}}catch(u){}}();/* ]]&gt; */&lt;/script&gt;\nFormat settings, CABAC           : No\nFormat settings, ReFrames        : 3 frames\nCodec ID                         : avc1\nCodec ID/Info                    : Advanced Video Coding\nDuration                         : 2h 26mn\nBit rate mode                    : Variable\nBit rate                         : 400 Kbps\nWidth                            : 480 pixels\nHeight                           : 272 pixels\nDisplay aspect ratio             : 16:9\nFrame rate mode                  : Variable\nFrame rate                       : 24.000 fps\nMinimum frame rate               : 23.810 fps\nMaximum frame rate               : 24.390 fps\nColor space                      : YUV\nChroma subsampling               : 4:2:0\nBit depth                        : 8 bits\nScan type                        : Progressive\nBits/(Pixel*Frame)               : 0.128\nStream size                      : 420 MiB (75%)\nWriting library                  : x264 core 79\n\nID                               : 2\nFormat                           : AAC\nFormat/Info                      : Advanced Audio Codec\nFormat version                   : Version 4\nFormat profile                   : LC\nFormat settings, SBR             : No\nCodec ID                         : 40\nDuration                         : 2h 26mn\nBit rate mode                    : Variable\nBit rate                         : 128 Kbps\nMaximum bit rate                 : 216 Kbps\nChannel(s)                       : 2 channels\nChannel positions                : Front: L R\nSampling rate                    : 48.0 KHz\nStream size                      : 134 MiB (24%)\nLanguage                         : Swedish\n\nScreens :\n &lt;a href=&quot;\nhttp://img541.imageshack.us/img541/2392/vlcsnap00001o.png&quot; rel=&quot;nofollow&quot; target=&quot;_NEW&quot;&gt;\nhttp://img541.imageshack.us/img541/2392/vlcsnap00001o.png&lt;/a&gt;\n &lt;a href=&quot;\nhttp://img39.imageshack.us/img39/1282/vlcsnap00002t.png&quot; rel=&quot;nofollow&quot; target=&quot;_NEW&quot;&gt;\nhttp://img39.imageshack.us/img39/1282/vlcsnap00002t.png&lt;/a&gt;\n &lt;a href=&quot;\nhttp://img13.imageshack.us/img13/9428/vlcsnap00003kd.png&quot; rel=&quot;nofollow&quot; target=&quot;_NEW&quot;&gt;\nhttp://img13.imageshack.us/img13/9428/vlcsnap00003kd.png&lt;/a&gt;\n &lt;a href=&quot;\nhttp://img816.imageshack.us/img816/7395/vlcsnap00004.png&quot; rel=&quot;nofollow&quot; target=&quot;_NEW&quot;&gt;\nhttp://img816.imageshack.us/img816/7395/vlcsnap00004.png&lt;/a&gt;\n &lt;a href=&quot;\nhttp://img231.imageshack.us/img231/1056/vlcsnap00005mw.png&quot; rel=&quot;nofollow&quot; target=&quot;_NEW&quot;&gt;\nhttp://img231.imageshack.us/img231/1056/vlcsnap00005mw.png&lt;/a&gt;\n &lt;a href=&quot;\nhttp://img696.imageshack.us/img696/2131/vlcsnap00006o.png&quot; rel=&quot;nofollow&quot; target=&quot;_NEW&quot;&gt;\nhttp://img696.imageshack.us/img696/2131/vlcsnap00006o.png&lt;/a&gt;\n &lt;a href=&quot;\nhttp://img693.imageshack.us/img693/934/vlcsnap00007q.png&quot; rel=&quot;nofollow&quot; target=&quot;_NEW&quot;&gt;\nhttp://img693.imageshack.us/img693/934/vlcsnap00007q.png&lt;/a&gt;\n &lt;a href=&quot;\nhttp://img824.imageshack.us/img824/8104/vlcsnap00008.png&quot; rel=&quot;nofollow&quot; target=&quot;_NEW&quot;&gt;\nhttp://img824.imageshack.us/img824/8104/vlcsnap00008.png&lt;/a&gt;\n\n  \n\n\n\n\nTHIS MOVIE IS IN SWEDISH WITH ENGLISH SUBS! REASON? \nTHE DUBBED VERSION IS A SHAME FOR THE ENTIRE MOVIE!!!!\n\n\n\n\n\nPLEASE LET THE TORRENT SEED AND SHARE IT WITH ALL YOU KNOW!\n\nLet me know what I can do to be your trusted source of Handheld videos.  &lt;a href=&quot;\nhttp://thepiratebay.se/user/on.off.on/&quot; rel=&quot;nofollow&quot; target=&quot;_NEW&quot;&gt;\nhttp://thepiratebay.se/user/on.off.on/&lt;/a&gt; -OOO\t","torrent":{"xt":"urn:btih:ad413a18c9806aa9d9e6d6409dceedf5842cd773","amp;dn":"The+Girl+Who+Kicked+the+Hornets+Nest+%28PSP+%2B+Ipod+touch+%2B+Zune%29","amp;tr":["udp%3A%2F%2Ftracker.openbittorrent.com%3A80","udp%3A%2F%2Fopen.demonii.com%3A1337","udp%3A%2F%2Ftracker.coppersurfer.tk%3A6969","udp%3A%2F%2Fexodus.desync.com%3A6969"],"infoHash":"ad413a18c9806aa9d9e6d6409dceedf5842cd773","infoHashBuffer":{"type":"Buffer","data":[173,65,58,24,201,128,106,169,217,230,214,64,157,206,237,245,132,44,215,115]},"announce":[],"urlList":[]}}